#!OML:ASF F:\VICON\USERDATA\INSTALL\rory3\rory3.ASF
:FULLY-SPECIFIED
:DEGREES
289
root 6.03857 18.0182 5.82307 352.236 50.7782 354.916
lowerback 11.9854 1.23042 -1.66762
upperback 0.58745 1.48319 0.872656
thorax -6.17576 0.794964 1.60421
lowerneck -9.27013 -10.4436 -14.6791
upperneck 33.6917 -16.0349 13.1067
head 15.9161 -7.02025 5.39282
rclavicle -1.12189e-014 -5.1684e-015
rhumerus -33.9165 -12.1724 -80.3791
rradius 32.8028
rwrist 6.40318
rhand -24.2205 9.30417
rfingers 7.12502
rthumb 2.26437 -20.6636
lclavicle -1.12189e-014 -5.1684e-015
lhumerus -34.0026 12.6663 74.61
lradius 31.9706
lwrist -6.42099
lhand -18.6303 25.5233
lfingers 7.12502
lthumb 7.66202 55.3644
rfemur -4.37106 -1.74761 16.7617
rtibia 21.6948
rfoot -8.52818 -3.8699
rtoes -9.63202
lfemur -4.70019 -9.7021 -2.60411
ltibia 36.053
lfoot -1.20992 13.6341
ltoes 6.20603
290
root 5.99309 18.0214 5.88456 352.361 50.2256 355.012
lowerback 12.0694 1.20457 -1.50187
upperback 0.570557 1.46557 0.804206
thorax -6.23383 0.780942 1.44007
lowerneck -9.29005 -10.4281 -14.3519
upperneck 33.6472 -16.0386 12.9661
head 15.8405 -6.99856 5.26892
rclavicle 6.25054e-014 3.18055e-015
rhumerus -33.9158 -11.4036 -80.5893
rradius 33.2683
rwrist 5.71352
rhand -24.1398 9.25988
rfingers 7.12502
rthumb 2.34232 -20.707
lclavicle 6.25054e-014 3.18055e-015
lhumerus -33.9445 12.4919 74.9615
lradius 32.0192
lwrist -6.5379
lhand -19.2421 26.2746
lfingers 7.12502
lthumb 7.07143 56.1365
rfemur -4.66411 -1.59564 17.0615
rtibia 22.0118
rfoot -8.62928 -3.63974
rtoes -9.88932
lfemur -5.12974 -9.52305 -3.07296
ltibia 36.6675
lfoot -2.68184 12.0607
ltoes 4.78554
291
root 5.95297 18.0283 5.9455 352.555 49.6472 355.289
lowerback 12.1595 1.23211 -1.43898
upperback 0.592334 1.50569 0.742192
thorax -6.25936 0.797878 1.33092
lowerneck -9.24658 -10.4517 -14.3795
upperneck 33.6336 -16.1137 13.0607
head 15.8547 -7.02741 5.30135
rclavicle -5.13983e-014 -1.59028e-015
rhumerus -33.8791 -10.9004 -80.5751
rradius 33.7067
rwrist 4.9231
rhand -23.4864 9.27482
rfingers 7.12502
rthumb 2.97333 -20.6842
lclavicle -5.13983e-014 -1.59028e-015
lhumerus -33.836 12.3506 75.3868
lradius 32.0121
lwrist -6.65189
lhand -19.8052 26.5125
lfingers 7.12502
lthumb 6.52791 56.3919
rfemur -4.90793 -1.42018 17.1705
rtibia 22.39
rfoot -8.85602 -3.19105
rtoes -8.85796
lfemur -5.41341 -9.29982 -3.75336
ltibia 37.1755
lfoot -3.94337 10.531
ltoes 2.20276
292
root 5.91514 18.0325 6.00365 352.863 49.0572 355.729
lowerback 12.22 1.30699 -1.53068
upperback 0.648775 1.58971 0.705254
thorax -6.23791 0.840732 1.32851
lowerneck -9.14679 -10.5038 -14.4454
upperneck 33.5278 -16.1878 13.0723
head 15.8024 -7.07441 5.29945
rclavicle -5.76351e-014 1.59028e-015
rhumerus -33.763 -10.82 -80.3248
rradius 34.076
rwrist 4.28243
rhand -22.589 9.59006
rfingers 7.12502
rthumb 3.84003 -20.3551
lclavicle -5.76351e-014 1.59028e-015
lhumerus -33.6204 12.3188 75.8709
lradius 31.9405
lwrist -6.8287
lhand -19.6841 26.2297
lfingers 7.12502
lthumb 6.64477 56.1055
rfemur -5.17283 -1.26672 17.1195
rtibia 22.7986
rfoot -9.09757 -2.54164
rtoes -7.03164
lfemur -5.67581 -9.02742 -4.61649
ltibia 37.6219
lfoot -5.0901 8.92549
ltoes -0.963708
293
root 5.87868 18.0302 6.05856 353.247 48.489 356.226
lowerback 12.2199 1.29203 -1.67733
upperback 0.724754 1.54548 0.632888
thorax -6.15763 0.821279 1.34367
lowerneck -9.20762 -10.4604 -14.2882
upperneck 33.4245 -16.0969 12.9284
head 15.7075 -7.03517 5.21749
rclavicle -5.86415e-014 -3.18055e-015
rhumerus -33.5243 -10.5044 -80.3102
rradius 34.3183
rwrist 4.13112
rhand -22.5506 9.64501
rfingers 7.12502
rthumb 3.87705 -20.2995
lclavicle -5.86415e-014 -3.18055e-015
lhumerus -33.4521 12.3828 76.2188
lradius 31.96
lwrist -6.81216
lhand -19.5108 25.9621
lfingers 7.12502
lthumb 6.81207 55.8325
rfemur -5.48351 -1.37364 17.0467
rtibia 23.2717
rfoot -9.33975 -2.03436
rtoes -7.52802
lfemur -5.99423 -8.7951 -5.5609
ltibia 37.9995
lfoot -6.60773 7.14239
ltoes -2.88049
294
root 5.84224 18.0261 6.11027 353.381 48.0497 356.411
lowerback 12.2549 1.2093 -1.64755
upperback 0.765941 1.43924 0.627173
thorax -6.1286 0.76794 1.33923
lowerneck -9.2328 -10.3994 -14.243
upperneck 33.3236 -16.0093 12.9276
head 15.639 -6.99671 5.22028
rclavicle 9.24721e-014 7.95139e-016
rhumerus -33.426 -9.92137 -80.3615
rradius 34.5881
rwrist 4.18865
rhand -23.1888 9.31684
rfingers 7.12502
rthumb 3.26078 -20.638
lclavicle 9.24721e-014 7.95139e-016
lhumerus -33.4094 12.491 76.5162
lradius 32.0057
lwrist -6.81472
lhand -19.4661 25.8245
lfingers 7.12502
lthumb 6.8552 55.6935
rfemur -5.80836 -1.47405 17.1879
rtibia 23.8584
rfoot -9.6757 -1.70699
rtoes -8.08651
lfemur -6.3898 -8.59572 -6.30464
ltibia 38.3226
lfoot -8.16916 5.15979
ltoes -5.78164
295
root 5.80675 18.0207 6.16074 353.527 47.6339 356.591
lowerback 12.3001 1.24207 -1.5552
upperback 0.770368 1.4934 0.605639
thorax -6.14824 0.791692 1.2542
lowerneck -9.03851 -10.4476 -14.2989
upperneck 33.1625 -16.0925 12.971
head 15.5424 -7.04737 5.23087
rclavicle 8.68192e-014 1.51076e-014
rhumerus -33.5476 -9.65479 -80.201
rradius 34.9423
rwrist 4.26948
rhand -23.8467 8.86272
rfingers 7.12502
rthumb 2.62542 -21.1009
lclavicle 8.68192e-014 1.51076e-014
lhumerus -33.2426 12.3224 76.985
lradius 31.8839
lwrist -6.98087
lhand -19.8522 26.457
lfingers 7.12502
lthumb 6.48251 56.3377
rfemur -6.18322 -1.39257 17.3044
rtibia 24.468
rfoot -10.0051 -1.4106
rtoes -6.85646
lfemur -6.74321 -8.52925 -7.05523
ltibia 38.5973
lfoot -9.43045 3.27607
ltoes -7.1129
296
root 5.77446 18.0121 6.20808 354.028 47.2003 357.147
lowerback 12.3358 1.28642 -1.57381
upperback 0.73857 1.53607 0.414265
thorax -6.19842 0.810631 1.05478
lowerneck -9.01524 -10.4859 -14.196
upperneck 33.113 -16.1719 12.9567
head 15.5145 -7.07345 5.1886
rclavicle -2.57178e-015 -1.13307e-014
rhumerus -33.6306 -9.64814 -80.0935
rradius 35.2323
rwrist 4.12122
rhand -24.1952 8.82817
rfingers 7.12502
rthumb 2.28881 -21.1393
lclavicle -2.57178e-015 -1.13307e-014
lhumerus -33.1156 11.9702 77.3652
lradius 31.8107
lwrist -7.14437
lhand -20.1815 26.6886
lfingers 7.12502
lthumb 6.16464 56.5789
rfemur -6.63816 -1.35049 17.1186
rtibia 25.0405
rfoot -10.3141 -1.06425
rtoes -6.36297
lfemur -7.10294 -8.64433 -8.133
ltibia 38.8132
lfoot -10.6491 1.42431
ltoes -6.00178
297
root 5.74225 18.0102 6.25239 354.446 46.6952 357.531
lowerback 12.4031 1.25653 -1.42719
upperback 0.650444 1.49973 0.190065
thorax -6.31824 0.786069 0.740168
lowerneck -9.12475 -10.4613 -13.9907
upperneck 33.1822 -16.1743 12.9211
head 15.5456 -7.04909 5.13641
rclavicle -8.58626e-014 7.55382e-015
rhumerus -33.6841 -10.0776 -79.9574
rradius 35.5205
rwrist 3.89124
rhand -23.7697 8.84763
rfingers 7.12502
rthumb 2.69978 -21.115
lclavicle -8.58626e-014 7.55382e-015
lhumerus -33.2342 11.4913 77.5511
lradius 31.9844
lwrist -6.92947
lhand -20.1201 26.2622
lfingers 7.12502
lthumb 6.22389 56.1508
rfemur -7.15647 -1.03981 17.0719
rtibia 25.6101
rfoot -10.5549 -0.831222
rtoes -5.51677
lfemur -7.57797 -8.41118 -9.1165
ltibia 38.9749
lfoot -11.768 -0.437227
ltoes -6.69815
298
root 5.71223 18.0103 6.29829 354.598 46.1271 357.717
lowerback 12.3942 1.2407 -1.29714
upperback 0.709565 1.49491 0.14668
thorax -6.24586 0.778976 0.622939
lowerneck -9.23899 -10.4647 -14.0821
upperneck 33.1461 -16.1744 12.9814
head 15.5732 -7.05248 5.17063
rclavicle 3.08365e-014 -3.97569e-016
rhumerus -33.5294 -10.4654 -79.6136
rradius 35.774
rwrist 3.4055
rhand -23.0897 9.00331
rfingers 7.12502
rthumb 3.35651 -20.95
lclavicle 3.08365e-014 -3.97569e-016
lhumerus -33.1813 11.2291 77.902
lradius 32.1358
lwrist -6.71125
lhand -20 26.2084
lfingers 7.12502
lthumb 6.33985 56.0935
rfemur -7.54583 -0.632826 17.179
rtibia 26.2161
rfoot -10.805 -0.573362
rtoes -4.9782
lfemur -7.96044 -7.90456 -10.0042
ltibia 39.0912
lfoot -12.8552 -2.53574
ltoes -8.01378
299
root 5.68322 17.9991 6.34322 354.643 45.4941 357.789
lowerback 12.3088 1.24563 -1.22923
upperback 0.844229 1.51875 0.226386
thorax -6.05646 0.789081 0.667699
lowerneck -9.34622 -10.4568 -14.2796
upperneck 33.0576 -16.1345 13.0658
head 15.5807 -7.05073 5.23906
rclavicle -2.91841e-014 -1.0138e-014
rhumerus -33.3476 -10.5773 -79.2809
rradius 36.1391
rwrist 2.88041
rhand -22.8327 9.22887
rfingers 7.12502
rthumb 3.60469 -20.7204
lclavicle -2.91841e-014 -1.0138e-014
lhumerus -33.0196 11.225 78.3552
lradius 32.189
lwrist -6.66363
lhand -20.2644 26.4321
lfingers 7.12502
lthumb 6.08457 56.3247
rfemur -7.8893 -0.588105 17.3957
rtibia 26.7881
rfoot -11.0467 -0.244498
rtoes -5.78649
lfemur -8.28608 -7.52121 -10.8293
ltibia 39.1707
lfoot -13.6307 -4.69875
ltoes -8.26548
